<svg id="visual" viewBox="0 0 540 960" width="540" height="960" xmlns="http://www.w3.org/2000/svg" xmlns:xlink="http://www.w3.org/1999/xlink" version="1.1"><rect x="0" y="0" width="540" height="960" fill="#fcfdfc"></rect><path d="M0 847L77 852L154 874L231 858L309 859L386 872L463 864L540 880L540 961L463 961L386 961L309 961L231 961L154 961L77 961L0 961Z" fill="#e2ece5"></path><path d="M0 891L77 880L154 862L231 886L309 892L386 886L463 884L540 868L540 961L463 961L386 961L309 961L231 961L154 961L77 961L0 961Z" fill="#c9dad0"></path><path d="M0 886L77 893L154 896L231 882L309 879L386 900L463 883L540 892L540 961L463 961L386 961L309 961L231 961L154 961L77 961L0 961Z" fill="#b1c8bd"></path><path d="M0 896L77 913L154 908L231 906L309 899L386 904L463 912L540 896L540 961L463 961L386 961L309 961L231 961L154 961L77 961L0 961Z" fill="#98b6ab"></path><path d="M0 910L77 912L154 922L231 920L309 921L386 914L463 912L540 913L540 961L463 961L386 961L309 961L231 961L154 961L77 961L0 961Z" fill="#7ea59b"></path><path d="M0 930L77 930L154 930L231 931L309 934L386 926L463 930L540 928L540 961L463 961L386 961L309 961L231 961L154 961L77 961L0 961Z" fill="#65948b"></path></svg>