<svg id="visual" viewBox="0 0 960 540" width="960" height="540" xmlns="http://www.w3.org/2000/svg" xmlns:xlink="http://www.w3.org/1999/xlink" version="1.1"><path d="M0 502L22.8 501.5C45.7 501 91.3 500 137 499.5C182.7 499 228.3 499 274 499.7C319.7 500.3 365.3 501.7 411.2 501.7C457 501.7 503 500.3 548.8 499.7C594.7 499 640.3 499 686 500.8C731.7 502.7 777.3 506.3 823 506.3C868.7 506.3 914.3 502.7 937.2 500.8L960 499L960 541L937.2 541C914.3 541 868.7 541 823 541C777.3 541 731.7 541 686 541C640.3 541 594.7 541 548.8 541C503 541 457 541 411.2 541C365.3 541 319.7 541 274 541C228.3 541 182.7 541 137 541C91.3 541 45.7 541 22.8 541L0 541Z" fill="#e2ece5"></path><path d="M0 505L22.8 506.5C45.7 508 91.3 511 137 511.2C182.7 511.3 228.3 508.7 274 508.7C319.7 508.7 365.3 511.3 411.2 510.8C457 510.3 503 506.7 548.8 506.2C594.7 505.7 640.3 508.3 686 508.8C731.7 509.3 777.3 507.7 823 508.5C868.7 509.3 914.3 512.7 937.2 514.3L960 516L960 541L937.2 541C914.3 541 868.7 541 823 541C777.3 541 731.7 541 686 541C640.3 541 594.7 541 548.8 541C503 541 457 541 411.2 541C365.3 541 319.7 541 274 541C228.3 541 182.7 541 137 541C91.3 541 45.7 541 22.8 541L0 541Z" fill="#a8b8b5"></path><path d="M0 512L22.8 513.3C45.7 514.7 91.3 517.3 137 519C182.7 520.7 228.3 521.3 274 521.3C319.7 521.3 365.3 520.7 411.2 519C457 517.3 503 514.7 548.8 513.8C594.7 513 640.3 514 686 514.2C731.7 514.3 777.3 513.7 823 513C868.7 512.3 914.3 511.7 937.2 511.3L960 511L960 541L937.2 541C914.3 541 868.7 541 823 541C777.3 541 731.7 541 686 541C640.3 541 594.7 541 548.8 541C503 541 457 541 411.2 541C365.3 541 319.7 541 274 541C228.3 541 182.7 541 137 541C91.3 541 45.7 541 22.8 541L0 541Z" fill="#738689"></path><path d="M0 520L22.8 521.3C45.7 522.7 91.3 525.3 137 526.7C182.7 528 228.3 528 274 528C319.7 528 365.3 528 411.2 527C457 526 503 524 548.8 523.2C594.7 522.3 640.3 522.7 686 523.2C731.7 523.7 777.3 524.3 823 523.8C868.7 523.3 914.3 521.7 937.2 520.8L960 520L960 541L937.2 541C914.3 541 868.7 541 823 541C777.3 541 731.7 541 686 541C640.3 541 594.7 541 548.8 541C503 541 457 541 411.2 541C365.3 541 319.7 541 274 541C228.3 541 182.7 541 137 541C91.3 541 45.7 541 22.8 541L0 541Z" fill="#46565f"></path><path d="M0 534L22.8 533.5C45.7 533 91.3 532 137 531.2C182.7 530.3 228.3 529.7 274 529C319.7 528.3 365.3 527.7 411.2 528.3C457 529 503 531 548.8 531.7C594.7 532.3 640.3 531.7 686 531.7C731.7 531.7 777.3 532.3 823 532.3C868.7 532.3 914.3 531.7 937.2 531.3L960 531L960 541L937.2 541C914.3 541 868.7 541 823 541C777.3 541 731.7 541 686 541C640.3 541 594.7 541 548.8 541C503 541 457 541 411.2 541C365.3 541 319.7 541 274 541C228.3 541 182.7 541 137 541C91.3 541 45.7 541 22.8 541L0 541Z" fill="#212936"></path></svg>